# xmcd
#
# Track frame offsets: 
#        182
#        13910
#        28285
#        43025
#        61657
#        76205
#        87450
#        103342
#        116705
#        133620
#
# Disc length: 1990 seconds
#
# Revision: 4
# Processed by: cddbd v1.5.2PL0 Copyright (c) Steve Scherf et al.
# Submitted via: ExactAudioCopy v1.0b3
#
DISCID=8607c40a
DTITLE=Highway 101 - Highway 101
DYEAR=1987
DGENRE=Country
TTITLE0=Whiskey, If You Were A Woman
TTITLE1=Bridge Across Forever
TTITLE2=Somewhere Tonight
TTITLE3=Woman Walk The Line
TTITLE4=Good Goodbye
TTITLE5=Cry, Cry, Cry
TTITLE6=Are You Still Mine
TTITLE7=One Step Closer
TTITLE8=Someone Believed
TTITLE9=The Bed You Made For Me
EXTD=(c)1986 Warner Bros.Records\nupc 07599256082\nProduced by Paul Wo
EXTD=rley
EXTT0=
EXTT1=
EXTT2=
EXTT3=
EXTT4=
EXTT5=
EXTT6=
EXTT7=
EXTT8=
EXTT9=
PLAYORDER=
